<?xml version="1.0" standalone="no"?>
<!DOCTYPE svg PUBLIC "-//W3C//DTD SVG 1.1//EN" "http://www.w3.org/Graphics/SVG/1.1/DTD/svg11.dtd" >
<svg>
<metadata>
Created by FontForge 20120731 at Sun Aug  7 04:21:26 2016
 By ,,,
Copyright (c)2014 Commercial Type.
</metadata>
<defs>
<font id="MarianText1757Web-Italic" horiz-adv-x="190" >
  <font-face 
    font-family="Marian Text 1757 Web"
    font-weight="400"
    font-style="italic"
    font-stretch="normal"
    units-per-em="1000"
    panose-1="2 0 0 0 0 0 0 0 0 0"
    ascent="800"
    descent="-200"
    x-height="453"
    cap-height="700"
    bbox="-277 -351 1092 810"
    underline-thickness="26"
    underline-position="-204"
    slope="-17"
    unicode-range="U+000D-201D"
  />
<missing-glyph 
 />
    <glyph glyph-name=".notdef" 
 />
    <glyph glyph-name=".null" horiz-adv-x="0" 
 />
    <glyph glyph-name="nonmarkingreturn" unicode="&#xd;" 
 />
    <glyph glyph-name="NULL" horiz-adv-x="0" 
 />
    <glyph glyph-name="NULL" horiz-adv-x="0" 
 />
    <glyph glyph-name="space" unicode=" " 
 />
    <glyph glyph-name="comma" unicode="," horiz-adv-x="250" 
d="M156 39q0 32 -14 47t-36 15q-7 0 -13 -1t-11 -3q-6 -2 -11 -3l-8 28q6 2 14 4q7 2 15 3.5t19 1.5q14 0 28.5 -4t26 -14t19 -27t7.5 -43q0 -34 -13 -65.5t-36.5 -58t-56 -46t-70.5 -28.5l-8 28q32 10 59 27t47 39t31 47.5t11 52.5z" />
    <glyph glyph-name="hyphen" unicode="-" horiz-adv-x="294" 
d="M67 247h184l-8 -27h-184z" />
    <glyph glyph-name="period" unicode="." horiz-adv-x="176" 
d="M68 -10q-12 0 -21.5 8.5t-9.5 22.5t9.5 22.5t21.5 8.5t21.5 -8.5t9.5 -22.5t-9.5 -22.5t-21.5 -8.5z" />
    <glyph glyph-name="zero" unicode="0" horiz-adv-x="449" 
d="M279 460q32 0 57 -11.5t42 -32t25.5 -48t8.5 -59.5q0 -55 -17.5 -112t-50 -103t-77 -75t-98.5 -29q-32 0 -57 11.5t-42 32t-25.5 48t-8.5 59.5q0 55 17.5 112t50 103t77 75t98.5 29zM169 18q27 0 51 9t45 25q26 20 46.5 49t35 63t22 71t7.5 74q0 24 -5 46t-16.5 39
t-30 27.5t-45.5 10.5q-38 0 -73 -19q-31 -17 -56 -46.5t-42 -66t-26.5 -78t-9.5 -81.5q0 -24 5 -46t16.5 -39t30 -27.5t45.5 -10.5z" />
    <glyph glyph-name="one" unicode="1" horiz-adv-x="312" 
d="M0 0l12 27h93l102 388q-26 -10 -59.5 -19t-75.5 -17l13 29q37 9 73.5 19t66.5 23h26l-111 -423h100l-12 -27h-228z" />
    <glyph glyph-name="two" unicode="2" horiz-adv-x="428" 
d="M233 262q-9 -12 -20 -22q-10 -8 -25 -15t-36 -7q-36 0 -58.5 22.5t-22.5 62.5q0 32 14.5 60.5t39.5 50t59 34t73 12.5q67 0 105 -34.5t38 -93.5q0 -62 -45.5 -115t-138.5 -110q-42 -26 -78 -45.5t-65 -34.5h272l-31 -102h-34l23 75h-301l5 23q33 17 83 43.5t112 64.5
q85 53 123.5 100t38.5 101q0 45 -26.5 72.5t-81.5 27.5q-33 0 -60.5 -10.5t-47 -28.5t-30.5 -41.5t-11 -48.5q0 -22 10.5 -38.5t35.5 -16.5q14 0 25.5 5t19.5 12q9 8 15 18z" />
    <glyph glyph-name="three" unicode="3" horiz-adv-x="418" 
d="M77 -209q-41 0 -68 9.5t-43.5 24.5t-23.5 34t-7 38q0 18 5 31.5t11 22.5q7 11 17 19l23 -19q-7 -6 -11 -14q-5 -7 -8 -17t-3 -23q0 -14 5 -27.5t18 -24.5t34.5 -17.5t53.5 -6.5q47 0 87.5 16t70.5 43t47 63.5t17 77.5q0 53 -28.5 84t-84.5 31q-18 0 -36 -5.5t-55 -21.5
l-15 22q47 23 82 40t63 32q51 28 80 62t29 80q0 42 -24.5 64.5t-74.5 22.5q-30 0 -57 -8.5t-47 -23.5t-31.5 -36t-11.5 -45q0 -18 8.5 -29t27.5 -11q14 0 24 5q5 3 9 6l8 -30q-5 -3 -12 -6q-13 -5 -33 -5q-30 0 -48 17.5t-18 50.5q0 32 15 58.5t40.5 45t58.5 29t69 10.5
q63 0 98 -29.5t35 -83.5q0 -56 -36 -95.5t-93 -70.5q-11 -6 -22.5 -11t-22.5 -10h4q60 -5 97.5 -39t37.5 -100q0 -47 -19.5 -89t-54 -73.5t-82.5 -49.5t-105 -18z" />
    <glyph glyph-name="four" unicode="4" horiz-adv-x="513" 
d="M125 -210l8 27h97l50 188h-282l8 19l398 459h35l-116 -448h137l-8 -30h-137l-50 -188h107l-8 -27h-239zM387 418l-332 -383h233z" />
    <glyph glyph-name="five" unicode="5" horiz-adv-x="410" 
d="M72 -210q-63 0 -98 27t-35 70q0 12 2 22t5 18q4 9 8 16l28 -13q-3 -5 -5 -11q-2 -5 -3 -12t-1 -15q0 -34 26.5 -53t72.5 -19q49 0 90 21.5t70 56.5t45 79.5t16 91.5q0 54 -23 83t-74 29q-35 0 -67 -14t-58 -46l-24 9l110 318q51 -13 87.5 -17.5t69.5 -4.5q28 0 42 14.5
t23 42.5l33 -9q-13 -43 -37 -60.5t-61 -17.5q-35 0 -71.5 4t-65.5 11l-82 -238q20 19 48 28.5t59 9.5q60 0 93.5 -32.5t33.5 -107.5q0 -54 -18.5 -105t-52 -90t-81 -62.5t-105.5 -23.5z" />
    <glyph glyph-name="six" unicode="6" horiz-adv-x="431" 
d="M390 278q0 -53 -13.5 -104.5t-40 -92.5t-66 -66t-90.5 -25q-70 0 -103 44.5t-33 115.5q0 57 15.5 114.5t42.5 111.5t63.5 101.5t78.5 83.5q48 42 99.5 64t104.5 22q22 0 38.5 -3.5t27.5 -7.5q13 -5 23 -11l-15 -26q-9 5 -20 9q-10 3 -23.5 6t-31.5 3q-45 0 -91 -19.5
t-92 -59.5q-42 -35 -77.5 -81.5t-62.5 -106.5q54 77 138 77q24 0 47 -7t41 -24.5t29 -46t11 -71.5zM258 400q-41 0 -71 -19t-50 -45q-25 -31 -35 -60q-12 -31 -17 -62.5t-5 -63.5q0 -27 5 -51t17 -42t31.5 -28.5t48.5 -10.5q46 0 78.5 24.5t53.5 62.5t30.5 84t9.5 89
q0 65 -25.5 93.5t-70.5 28.5z" />
    <glyph glyph-name="seven" unicode="7" horiz-adv-x="422" 
d="M160 450h275l-5 -17l-368 -642h-36l359 629h-236l-58 -155h-34l84 223h33z" />
    <glyph glyph-name="eight" unicode="8" horiz-adv-x="446" 
d="M285 335q19 -15 37.5 -32t33 -38t23.5 -47.5t9 -60.5q0 -80 -50 -123.5t-134 -43.5q-40 0 -70.5 11.5t-51 31.5t-31 47t-10.5 58q0 40 16 71t41.5 55t58 43t66.5 34q-17 14 -33.5 30.5t-30 35.5t-21.5 42t-8 50q0 38 15 66t39.5 46t55.5 27t64 9q63 0 105 -32.5t42 -96.5
q0 -35 -13.5 -61.5t-36 -48t-52.5 -39.5t-64 -34zM415 518q0 48 -29.5 73.5t-81.5 25.5q-27 0 -52 -7.5t-44 -22.5t-30.5 -37t-11.5 -52q0 -26 8.5 -46.5t22 -37.5t30 -31t32.5 -27q33 15 61.5 31t49.5 34.5t33 42t12 54.5zM250 320q-32 -14 -63 -30.5t-55.5 -38
t-39.5 -49.5t-15 -64q0 -50 31.5 -84t95.5 -34q73 0 110.5 37t37.5 100q0 32 -9 56.5t-23.5 43.5t-33 34t-36.5 29z" />
    <glyph glyph-name="nine" unicode="9" horiz-adv-x="429" 
d="M171 43q42 0 78.5 27.5t61.5 67.5q26 41 35 86q5 22 5.5 43.5t0.5 42.5q0 25 -4 47t-14 38.5t-28 26.5t-45 10q-43 0 -77 -25t-57.5 -64.5t-36 -88t-12.5 -94.5q0 -54 24.5 -85.5t68.5 -31.5zM54 -210q-20 0 -38 4t-31.5 13t-22 23t-8.5 35q0 19 5 32q3 7 6 12l28 -13
q-2 -4 -3 -8q-2 -10 -2 -19q0 -28 20 -38.5t46 -10.5q42 0 80 24t76 68q38 42 67.5 95.5t48.5 113.5q-31 -53 -69 -79.5t-86 -26.5q-27 0 -50.5 9t-41 27t-27.5 45t-10 64q0 56 16.5 110t45.5 96t69 68t88 26q67 0 97 -41t30 -109q0 -65 -14 -128.5t-38.5 -121.5
t-57.5 -107.5t-70 -85.5t-76.5 -56.5t-77.5 -20.5z" />
    <glyph glyph-name="A" unicode="A" horiz-adv-x="683" 
d="M485 293l45 360l-250 -360h205zM589 27l-12 -27h-238l12 27h101l29 238h-220l-168 -238h94l-12 -27h-215l12 27h84l476 681h39l-84 -681h102z" />
    <glyph glyph-name="B" unicode="B" horiz-adv-x="642" 
d="M180 700h239q92 0 143.5 -36.5t51.5 -111.5q0 -71 -46 -118.5t-124 -61.5q31 -6 57 -18.5t45 -32.5t30 -48.5t11 -65.5q0 -59 -23 -98.5t-60.5 -63.5t-84.5 -34.5t-95 -10.5h-353l12 27h103l190 646h-108zM228 387h149q32 0 63.5 7.5t58.5 22.5q36 20 57 54t21 79
q0 60 -40 91.5t-119 31.5h-106zM324 27q40 0 80.5 9.5t73 30.5t53 55t20.5 83q0 78 -55 116.5t-152 38.5h-124l-98 -333h202z" />
    <glyph glyph-name="C" unicode="C" horiz-adv-x="668" 
d="M526 101q-17 -23 -38 -44t-48 -36.5t-59.5 -25t-71.5 -9.5q-57 0 -101 21t-74 59t-45.5 89.5t-15.5 113.5q0 75 23 154t69 143.5t113 106t156 41.5q48 0 84 -13t61 -37t39 -56.5t18 -71.5l39 131h30l-67 -226h-26q2 15 2.5 30t-0.5 30q-2 37 -13 70.5t-32.5 59
t-55.5 40.5t-81 15q-80 0 -140 -40t-101 -101.5t-61.5 -135.5t-20.5 -142q0 -52 13 -98t38.5 -80.5t64 -54.5t88.5 -20q52 0 94 20.5t73.5 52.5t52.5 70t33 74h28l-67 -230h-30z" />
    <glyph glyph-name="D" unicode="D" horiz-adv-x="704" 
d="M-17 27h97l190 646h-102l12 27h226q63 0 117 -16.5t93.5 -51t62 -88.5t22.5 -129q0 -89 -33 -166.5t-92 -134.5q-55 -54 -130.5 -84t-169.5 -30h-305zM306 673l-190 -646h161q90 0 162 31t122.5 84t77 123.5t26.5 149.5q0 145 -92 212q-33 24 -75.5 35t-93.5 11h-98z" />
    <glyph glyph-name="E" unicode="E" horiz-adv-x="649" 
d="M-29 0l12 27h103l190 646h-106l8 27h475l-46 -185h-32l39 158h-302l-85 -289h180l37 125h33l-82 -278h-33l37 126h-180l-97 -330h381l46 158h33l-54 -185h-557z" />
    <glyph glyph-name="F" unicode="F" horiz-adv-x="592" 
d="M-29 0l12 27h103l190 646h-108l12 27h490l-55 -185h-32l47 158h-318l-85 -289h181l37 125h32l-82 -278h-32l37 126h-181l-97 -330h117l-12 -27h-256z" />
    <glyph glyph-name="G" unicode="G" horiz-adv-x="729" 
d="M566 76q-12 -15 -33.5 -31t-50.5 -29t-66.5 -21.5t-80.5 -8.5q-66 0 -115.5 20.5t-82 57.5t-48.5 88t-16 111q0 51 10 104t30.5 103.5t50.5 94.5t70.5 77.5t90.5 52.5t110 19q52 0 90 -15t63.5 -40.5t39 -60.5t15.5 -74l39 131h30l-63 -210h-28q2 26 0 56q-3 32 -13.5 65
t-32.5 59.5t-56.5 43.5t-85.5 17q-53 0 -97.5 -18.5t-80.5 -50t-63 -73t-45.5 -88.5t-28 -96.5t-9.5 -96.5q0 -52 13.5 -97.5t41.5 -79t71 -53t102 -19.5q37 0 68 7t55.5 17.5t42 22.5t28.5 21l49 165h-135l3 27h279l-3 -27h-108z" />
    <glyph glyph-name="H" unicode="H" horiz-adv-x="791" 
d="M-29 0l12 27h103l189 646h-108l12 27h242l-12 -27h-98l-85 -290h427l86 290h-101l12 27h242l-12 -27h-105l-191 -646h109l-12 -27h-240l12 27h95l97 328h-427l-96 -328h100l-12 -27h-239z" />
    <glyph glyph-name="I" unicode="I" horiz-adv-x="327" 
d="M-29 0l12 27h103l190 646h-109l12 27h251l-12 -27h-106l-190 -646h110l-12 -27h-249z" />
    <glyph glyph-name="J" unicode="J" horiz-adv-x="651" 
d="M-60 -200q0 20 5 32.5t14 30.5l29 -13q-8 -16 -11 -26t-3 -24q0 -32 32.5 -55.5t83.5 -23.5q48 0 84.5 20t63.5 51.5t45.5 71t32.5 78.5l112 330h-141l4 30h148q28 82 55.5 150.5t46.5 111.5q-37 4 -66 21t-55 38q-17 14 -33.5 27.5t-34 24.5t-37 18t-41.5 7
q-44 0 -69.5 -21.5t-25.5 -55.5q0 -16 5 -26t11 -16q7 -7 16 -11l-16 -24q-13 5 -24 16q-9 9 -16.5 23.5t-7.5 37.5q0 47 36 77t94 30q26 0 48 -7.5t42 -19t38 -26t36 -28.5q26 -20 53 -36t60 -20q13 29 27 54.5t30.5 44t35 29.5t40.5 11q27 0 45.5 -15.5t18.5 -47.5
q0 -24 -11.5 -44.5t-34 -35.5t-55.5 -22.5t-75 -4.5q-9 -20 -20.5 -48t-24.5 -61.5t-27.5 -72t-28.5 -78.5h123l-4 -30h-130l-116 -342q-15 -44 -36 -87t-51.5 -77t-72 -54.5t-97.5 -20.5q-33 0 -60.5 8.5t-47.5 23t-31 34.5t-11 43zM685 702q-30 0 -52 -30.5t-45 -80.5
q32 -2 56.5 3.5t41 16.5t25 26t8.5 31q0 19 -10 26.5t-24 7.5z" />
    <glyph glyph-name="K" unicode="K" horiz-adv-x="700" 
d="M514 -8q-21 0 -40 5t-34.5 18.5t-26.5 37t-17 60.5l-16 106q-4 24 -10 45.5t-16 37.5t-24.5 25t-34.5 9t-33 -8.5t-24 -25.5q-22 -32 -44.5 -65t-33.5 -72l-41 -138h109l-12 -27h-247l12 27h102l190 646h-107l12 27h243l-12 -27h-100l-120 -396q32 48 72.5 103t85 106.5
t89 96.5t83.5 74q48 36 87.5 49t72.5 13q47 0 66.5 -17.5t19.5 -41.5q0 -23 -15.5 -38t-48.5 -20l-4 26q22 5 27 14.5t5 16.5q0 12 -10.5 21t-39.5 9q-27 0 -62.5 -11t-80.5 -45q-29 -22 -60.5 -52t-65 -65.5t-67.5 -75.5t-66 -82q7 2 14 3t16 1q47 0 72.5 -34t35.5 -107
l15 -103q7 -51 29 -73.5t58 -22.5q47 0 92 41l16 -24q-28 -25 -52.5 -36t-58.5 -11z" />
    <glyph glyph-name="L" unicode="L" horiz-adv-x="626" 
d="M-32 0l12 27h103l190 646h-107l12 27h253l-12 -27h-110l-190 -646h356l49 166h32l-57 -193h-531z" />
    <glyph glyph-name="M" unicode="M" horiz-adv-x="866" 
d="M202 0h-231l12 27h97l190 646h-102l12 27h138l60 -644l439 644h152l-12 -27h-98l-192 -646h103l-12 -27h-234l12 27h95l181 611l-434 -638h-28l-59 632l-178 -605h101z" />
    <glyph glyph-name="N" unicode="N" horiz-adv-x="915" 
d="M734 488q22 76 46.5 124t50.5 75q23 23 48 33t53 10q45 0 69.5 -20.5t24.5 -53.5q0 -17 -5 -28.5t-11 -19.5q-7 -9 -16 -15l-22 18q5 5 9 12q3 6 6 13.5t3 17.5q0 20 -15 33t-43 13q-30 0 -55 -16.5t-45.5 -45.5t-37 -69.5t-30.5 -88.5l-141 -482h-28l-175 637l-123 -412
q-41 -139 -96 -204t-134 -65q-54 0 -81 27t-27 66q0 26 10.5 44.5t29.5 34.5l19 -25q-13 -11 -18 -25t-5 -28q0 -24 16 -44t56 -20q29 0 54 11.5t46 32.5q33 33 57 86.5t44 119.5l132 439h-126l8 27h155l174 -633z" />
    <glyph glyph-name="O" unicode="O" horiz-adv-x="661" 
d="M442 714q112 0 165 -66.5t53 -182.5q0 -51 -9.5 -104.5t-27.5 -104t-45.5 -96t-63.5 -81.5q-44 -43 -99 -68t-124 -25q-112 0 -165 66.5t-53 182.5q0 52 9.5 106.5t28.5 105.5t47.5 97t66.5 82q43 41 97 64.5t120 23.5zM444 686q-60 0 -110 -23t-90 -63
q-34 -34 -59.5 -78t-43 -92t-26 -98.5t-8.5 -96.5q0 -45 9.5 -85t31 -70.5t56 -48t85.5 -17.5q61 0 110.5 23t89.5 63q34 34 59.5 78t43 92t26 98t8.5 97q0 45 -9.5 85t-31 70.5t-56 48t-85.5 17.5z" />
    <glyph glyph-name="P" unicode="P" horiz-adv-x="587" 
d="M-32 0l12 27h103l190 646h-109l12 27h236q100 0 152.5 -41t52.5 -119q0 -51 -21 -92.5t-56.5 -70t-83 -44t-99.5 -15.5h-153l-85 -291h108l-12 -27h-247zM309 673l-97 -328h145q44 0 84.5 13t71.5 38t49.5 61t18.5 83q0 133 -171 133h-101z" />
    <glyph glyph-name="Q" unicode="Q" horiz-adv-x="644" 
d="M436 686q-60 0 -108.5 -24.5t-88.5 -64.5q-33 -33 -57.5 -76.5t-40.5 -91.5t-24 -98t-8 -96q0 -45 9 -85t29 -70.5t53 -48t81 -17.5q60 0 108.5 24.5t89.5 65.5q33 33 57.5 76t40 91t23.5 97.5t8 96.5q0 45 -9 85t-29 70.5t-53 48t-81 17.5zM434 714q53 0 92.5 -17.5
t65 -49.5t38 -78t12.5 -104q0 -82 -23 -167t-68 -154.5t-112.5 -113.5t-155.5 -44q-21 0 -40 3q-3 -7 -9.5 -19.5t-17.5 -27.5q36 -20 68.5 -48.5t62.5 -60.5q27 -29 54.5 -57t56 -49.5t59.5 -34.5t67 -13q38 0 61.5 13t37.5 30q16 18 24 43l30 -10l-7 -16q-8 -17 -25 -37
t-46.5 -36.5t-74.5 -16.5q-39 0 -73 13.5t-66 36t-61.5 52t-59.5 61.5q-28 30 -59.5 57.5t-66.5 47.5q-11 -15 -25 -29t-30.5 -25t-35.5 -17.5t-40 -6.5q-31 0 -53.5 15t-22.5 47q0 38 30.5 56.5t74.5 18.5q24 0 47.5 -5.5t46.5 -15.5q8 11 13.5 21.5t9.5 18.5
q-71 21 -104.5 83t-33.5 157q0 82 23 167t68 154.5t112 113.5t156 44zM92 -54q-29 0 -49 -10t-20 -32q0 -17 13 -26t33 -9q32 0 57.5 18.5t45.5 42.5q-20 8 -39.5 12t-40.5 4z" />
    <glyph glyph-name="R" unicode="R" horiz-adv-x="709" 
d="M232 27l-12 -27h-249l12 27h103l190 646h-110l12 27h248q199 0 199 -150q0 -48 -19 -85.5t-51.5 -64t-76.5 -40t-93 -13.5h-5q32 -12 55.5 -41t31.5 -85q1 -10 3.5 -26t5 -34t6 -36t6.5 -32q9 -38 28 -54.5t51 -16.5q46 0 86 33l16 -21q-23 -20 -47 -31t-56 -11
q-41 0 -70.5 20.5t-42.5 72.5q-3 14 -6.5 32.5t-6 37t-5 36t-4.5 28.5q-11 67 -44.5 95t-98.5 28h-73l-93 -315h110zM368 369q45 0 85 11.5t70 34t48 56.5t18 78q0 63 -39.5 93.5t-124.5 30.5h-113l-89 -304h145z" />
    <glyph glyph-name="S" unicode="S" horiz-adv-x="578" 
d="M304 -14q-45 0 -81 14.5t-62 39.5t-40.5 58t-15.5 70l-40 -141h-30l66 225h26q-2 -18 -2.5 -36.5t1.5 -35.5q4 -34 17.5 -64.5t35.5 -53t53.5 -35.5t72.5 -13q72 0 113.5 41t41.5 115q0 40 -12 68t-30.5 50t-42 39.5t-45.5 36.5q-24 21 -47.5 41.5t-41.5 43.5t-29.5 50.5
t-11.5 61.5q0 41 14.5 70t38.5 47.5t54.5 27t61.5 8.5q69 0 110.5 -35t46.5 -88l27 90h30l-49 -163h-28q4 31 0 57q-8 56 -47 83.5t-91 27.5q-27 0 -51 -7.5t-42 -22.5t-28.5 -38t-10.5 -54q0 -30 10 -53.5t26.5 -44t37 -39t42.5 -37.5q24 -21 49.5 -40.5t46.5 -44t34.5 -56
t13.5 -76.5q0 -46 -15 -81t-41 -58.5t-61 -35.5t-75 -12z" />
    <glyph glyph-name="T" unicode="T" horiz-adv-x="683" 
d="M153 0l12 27h97l180 611l-165 -6q-129 -5 -129 -93q0 -16 3 -26.5t8 -18.5q4 -9 11 -15l-29 -12q-8 6 -14 17q-5 9 -9 22t-4 33q0 57 41.5 88t120.5 34l405 15q29 1 47 7t28.5 15t14 20t3.5 23q0 13 -3.5 23t-7.5 16q-4 7 -10 12l23 18q9 -6 16 -16q6 -8 11 -21.5
t5 -31.5t-6.5 -34.5t-21 -29.5t-38.5 -21t-60 -9l-203 -8l-181 -612h104l-12 -27h-237z" />
    <glyph glyph-name="U" unicode="U" horiz-adv-x="769" 
d="M630 221q-19 -63 -44 -107.5t-60.5 -73t-81.5 -41.5t-107 -13q-109 0 -163.5 49t-54.5 136q0 30 5.5 60t13.5 56l115 386h-108l12 27h249l-12 -27h-105l-117 -394q-8 -28 -12.5 -58t-4.5 -51q0 -67 45 -110.5t137 -43.5q54 0 95.5 12.5t72 39t52.5 66.5t39 95l132 444
h-111l12 27h252l-12 -27h-105z" />
    <glyph glyph-name="V" unicode="V" horiz-adv-x="664" 
d="M684 673l-473 -681h-37l85 681h-103l12 27h236l-12 -27h-98l-77 -618l429 618h-98l12 27h213l-12 -27h-77z" />
    <glyph glyph-name="W" unicode="W" horiz-adv-x="968" 
d="M483 673l12 27h248l-12 -27h-104l-78 -619l410 619h-104l12 27h225l-12 -27h-83l-451 -681h-39l78 600l-382 -600h-39l85 681h-109l12 27h248l-12 -27h-104l-77 -618l381 592l3 26h-108z" />
    <glyph glyph-name="X" unicode="X" horiz-adv-x="728" 
d="M816 700l-12 -27h-101l-275 -308l86 -338h112l-12 -27h-244l12 27h96l-78 307l-282 -307h106l-12 -27h-246l12 27h100l312 340l-87 306h-106l12 27h246l-12 -27h-103l78 -275l246 275h-103l12 27h243z" />
    <glyph glyph-name="Y" unicode="Y" horiz-adv-x="646" 
d="M229 27l100 339q5 17 9.5 54t4.5 80q0 33 -3.5 66t-13 59t-25.5 42.5t-40 16.5q-17 0 -30.5 -7.5t-25.5 -20.5q-14 -16 -25 -37.5t-19 -45t-14 -47t-10 -42.5l-32 4q14 58 32 108.5t48 81.5q33 36 79 36q33 0 54.5 -17t33.5 -44t17 -60.5t5 -67.5q0 -25 -2.5 -47
t-6.5 -42q15 42 43 91t66 92q42 48 91.5 79.5t102.5 31.5q37 0 60.5 -18t23.5 -53q0 -14 -3 -25.5t-7 -19.5q-4 -10 -10 -18l-28 9q3 7 7 16q2 8 4.5 17t2.5 19q0 43 -54 43q-44 0 -87 -28t-82 -73q-45 -53 -80 -117.5t-52 -123.5l-98 -331h109l-12 -27h-242l12 27h97z" />
    <glyph glyph-name="Z" unicode="Z" horiz-adv-x="637" 
d="M266 129q37 0 67 -9t54.5 -23t44.5 -31.5t36 -35.5q36 -38 65 -77.5t59.5 -71.5t65.5 -52.5t83 -20.5q34 0 57 10.5t37.5 27.5t21.5 40t7 49l32 -5q0 -32 -10.5 -60t-30 -48.5t-49 -32t-67.5 -11.5q-52 0 -90.5 21t-71.5 54.5t-64 74.5t-67 81q-13 15 -30 30.5t-39 29
t-49.5 22t-61.5 8.5q-36 0 -65 -12t-55 -45l-45 -57l-23 19l455 566q-9 -3 -20 -3q-22 0 -42 8t-37.5 20t-32.5 25t-28 23q-28 21 -49 31t-45 10q-40 0 -71.5 -25.5t-36.5 -86.5l-32 5q4 39 17.5 65t33 42t43 23t46.5 7q31 0 55.5 -11.5t56.5 -36.5q12 -9 25 -20.5t28 -22.5
t32 -18.5t37 -7.5q25 0 44.5 13.5t40.5 39.5l43 54l23 -19l-455 -566q14 6 28.5 8t28.5 2z" />
    <glyph glyph-name="a" unicode="a" horiz-adv-x="465" 
d="M323 -10q-29 0 -41.5 20t-14.5 49q-2 14 0 29q-24 -45 -60 -71.5t-83 -26.5q-19 0 -36.5 5.5t-31.5 19.5t-22.5 36.5t-8.5 57.5t8.5 72t24 74t38 71.5t50.5 64.5q30 31 68 50t76 19q35 0 52 -16t21 -42l17 50h35l-105 -307q-6 -17 -10.5 -36.5t-3.5 -38.5q0 -21 7 -35.5
t23 -14.5q14 0 26.5 9t23.5 24q17 23 30 54.5t24 63.5l26 -12q-14 -37 -27.5 -69t-30.5 -55q-15 -21 -33 -33t-42 -12zM288 430q-33 0 -63 -18.5t-55 -44.5q-53 -56 -81 -125.5t-28 -132.5q0 -47 18 -68t50 -21q28 0 52 14t44 36.5t35.5 51t25.5 57.5l48 139q13 37 10 64
q-3 22 -16 35t-40 13z" />
    <glyph glyph-name="b" unicode="b" horiz-adv-x="413" 
d="M127 357q32 50 74 76.5t90 26.5t72.5 -28t24.5 -88q0 -35 -9 -76.5t-25 -82t-38 -77.5t-48 -63q-55 -55 -125 -55q-51 0 -84 30.5t-33 93.5q0 26 6 52t14 51l166 484l-90 -5l11 28l124 6zM62 117q0 -48 22 -72.5t61 -24.5q26 0 52.5 11.5t50.5 36.5t43.5 59t33 71.5
t20.5 75t7 68.5q0 41 -14 64.5t-51 23.5q-29 0 -59 -15t-56 -40t-47 -57.5t-33 -67.5l-15 -44q-8 -23 -11.5 -46.5t-3.5 -42.5z" />
    <glyph glyph-name="c" unicode="c" horiz-adv-x="379" 
d="M343 380q0 26 -18 38t-43 12t-50 -11t-49 -31q-25 -21 -47.5 -50t-39 -63t-26 -71.5t-9.5 -74.5q0 -21 4 -40.5t13.5 -34.5t26 -24.5t42.5 -9.5q48 0 83.5 34.5t56.5 97.5l28 -16q-23 -69 -67 -107.5t-103 -38.5q-60 0 -90 37.5t-30 100.5q0 45 11 87t30 79.5t44.5 69
t55.5 53.5q28 20 58 31.5t61 11.5q39 0 66.5 -18.5t27.5 -60.5q0 -24 -14 -55l-34 4q7 18 9.5 30t2.5 20z" />
    <glyph glyph-name="d" unicode="d" horiz-adv-x="468" 
d="M323 -10q-28 0 -41 19.5t-15 48.5q-1 15 0 31q-24 -45 -60 -72t-83 -27q-19 0 -36.5 5.5t-31.5 19.5t-22.5 36.5t-8.5 57.5t8 72.5t24 74t38 71.5t51 64q30 31 68 50t76 19q35 0 52 -16t21 -42l102 299l-91 -5l11 28l124 6l-199 -585q-6 -18 -9.5 -39t-2.5 -40
q1 -20 7.5 -33t20.5 -13t26.5 9t23.5 23q17 23 30 55t24 64l26 -12q-15 -39 -29.5 -72.5t-32.5 -56.5q-14 -19 -31 -29.5t-40 -10.5zM288 430q-32 0 -62.5 -18.5t-55.5 -44.5q-27 -27 -47 -59.5t-34 -66t-21 -67.5t-7 -65q0 -47 18 -68t50 -21q26 0 48.5 12t41.5 32
q23 23 39.5 53.5t27.5 61.5l48 139q6 17 8.5 33t1.5 30q-2 22 -15.5 35.5t-40.5 13.5z" />
    <glyph glyph-name="e" unicode="e" horiz-adv-x="366" 
d="M61 126q0 -20 3.5 -39t13.5 -34t26 -24t42 -9q48 0 84 34.5t59 95.5l26 -12q-26 -67 -67 -107.5t-104 -40.5q-61 0 -90 37.5t-29 97.5q0 36 9.5 74t26 74t39.5 69t50 58q30 28 63.5 44t66.5 16q35 0 59.5 -17.5t24.5 -54.5q0 -39 -27 -71t-62 -54q-43 -27 -93 -43.5
t-114 -33.5q-3 -15 -5 -30t-2 -30zM77 220q55 14 98 28.5t78 36.5q33 20 54 46.5t21 54.5q0 22 -13.5 33t-37.5 11q-26 0 -52 -13.5t-49 -35.5q-32 -29 -58 -71.5t-41 -89.5z" />
    <glyph glyph-name="f" unicode="f" horiz-adv-x="281" 
d="M304 450l-9 -29h-104q-16 -53 -37 -123t-42 -141.5t-40 -137t-32 -110.5q-17 -57 -37 -94t-43.5 -58t-49.5 -29t-56 -8q-48 0 -79 18.5t-52 61.5l30 13q14 -30 39 -46.5t63 -16.5q25 0 46.5 8t40 27.5t34.5 51.5t30 80q13 44 32 108t39.5 134t40.5 139t36 123h-94l9 29
h94l31 105q16 52 34.5 87.5t40.5 57t46.5 31t53.5 9.5t55 -11t52 -42l-21 -21q-22 25 -41.5 34.5t-43.5 9.5q-51 0 -84 -39.5t-60 -126.5q-8 -23 -13.5 -45.5t-13.5 -48.5h105z" />
    <glyph glyph-name="g" unicode="g" horiz-adv-x="462" 
d="M191 148q30 0 57 14t48 38t33 56t12 69q0 22 -5 41.5t-15.5 34t-28 23t-41.5 8.5q-30 0 -57 -14t-48 -38t-33 -56t-12 -69q0 -22 5 -41.5t15.5 -34t28 -23t41.5 -8.5zM378 -146q0 -37 -16 -64t-44.5 -45t-66.5 -26.5t-81 -8.5q-60 0 -99.5 14t-63 36t-33 48.5t-9.5 51.5
q0 42 19 69t39 37l21 -19q-19 -10 -32 -34t-13 -52q0 -20 8 -42t27.5 -40t52.5 -29.5t84 -11.5q34 0 65.5 6.5t55.5 20.5t38 35.5t14 52.5q0 35 -20 53.5t-62 32.5q-31 11 -64 20t-67 23q-35 15 -54 33.5t-19 48.5t17 48.5t40 29.5q-23 17 -35.5 45t-12.5 68q0 46 15.5 83.5
t41.5 64.5t59.5 42t68.5 15q62 0 96 -43q15 14 33.5 22t41.5 8t41.5 -12t18.5 -47q0 -8 -1 -16.5t-3 -18.5l-34 4q4 15 4 29q0 32 -31 32q-16 0 -30 -7.5t-26 -18.5q13 -26 13 -67q0 -46 -15.5 -83.5t-42 -64.5t-60 -42t-69.5 -15q-27 0 -49 9q-22 -11 -34.5 -26.5
t-12.5 -35.5q0 -19 13 -30.5t40 -22.5q32 -14 67.5 -23.5t58.5 -17.5q55 -18 81 -44t26 -75z" />
    <glyph glyph-name="h" unicode="h" horiz-adv-x="484" 
d="M315 -10q-23 0 -38 14.5t-15 46.5q0 16 4 35.5t9 41.5q15 54 31 102.5t26 90.5q5 21 8.5 38.5t3.5 31.5q0 17 -9.5 28t-32.5 11q-18 0 -35 -7.5t-34 -19.5q-22 -17 -41 -40.5t-33.5 -46.5t-24 -42t-12.5 -28l-84 -246h-35l240 701l-90 -5l11 28l124 6l-128 -371
q37 55 73 78t73 23q36 0 55 -19t19 -50q0 -14 -3.5 -33t-9.5 -42q-11 -46 -28 -97.5t-31 -98.5q-5 -19 -8 -36t-3 -31q0 -33 22 -33q14 0 27.5 12.5t26.5 32.5q14 22 27.5 49.5t27.5 56.5l28 -12q-17 -35 -31 -63t-28 -48q-20 -29 -39.5 -43.5t-42.5 -14.5z" />
    <glyph glyph-name="i" unicode="i" horiz-adv-x="300" 
d="M230 625q-14 0 -22.5 8.5t-8.5 22.5q0 13 8.5 22t22.5 9q13 0 22 -9t9 -22q0 -14 -9 -22.5t-22 -8.5zM191 402q0 28 -20 28q-15 0 -30.5 -14.5t-29.5 -36.5t-26.5 -47.5t-22.5 -47.5l-28 12q37 84 70 124t71 40q21 0 36.5 -13.5t15.5 -42.5q0 -18 -7 -43t-17 -52
q-17 -44 -34 -86t-36 -88q-9 -21 -15 -41.5t-6 -37.5q0 -16 6 -26t20 -10q16 0 30.5 13.5t28.5 35t27 48.5t25 54l26 -12q-38 -85 -68.5 -127t-71.5 -42q-26 0 -42 16.5t-16 47.5q0 20 6.5 43.5t16.5 47.5q17 45 35.5 86.5t34.5 85.5q9 25 15 47t6 38z" />
    <glyph glyph-name="j" unicode="j" horiz-adv-x="238" 
d="M197 656q0 13 8.5 22t22.5 9q13 0 22 -9t9 -22q0 -14 -9 -22.5t-22 -8.5q-14 0 -22.5 8.5t-8.5 22.5zM32 -64l14 40l21 65q12 36 25 76.5t25 78t21.5 67t14.5 44.5q9 29 15 52.5t6 43.5q0 27 -22 27q-18 0 -33 -16.5t-27 -39t-21.5 -46.5t-15.5 -38l-27 12q12 28 24.5 56
t27.5 50.5t33 37t42 14.5q23 0 39 -13.5t16 -42.5q0 -23 -7 -48t-18 -57q-5 -15 -14.5 -45.5t-21.5 -67.5t-25 -77.5t-25 -76.5t-21.5 -64t-13.5 -40q-20 -55 -40 -89.5t-40.5 -53.5t-42.5 -26t-45 -7q-46 0 -69.5 22t-23.5 57q0 18 5 30q2 6 5 11l31 -4q-2 -6 -4 -11
q-3 -11 -3 -24q0 -23 15 -37t44 -14q42 0 73.5 34.5t62.5 119.5z" />
    <glyph glyph-name="k" unicode="k" horiz-adv-x="418" 
d="M258 366q-22 -20 -49 -46.5t-52 -57.5q12 7 26 7q16 0 26.5 -4.5t18 -16.5t12 -33.5t9.5 -56.5l12 -86q3 -23 13 -36.5t33 -13.5q18 0 31.5 9.5t27.5 26.5l21 -18q-19 -23 -36 -35.5t-46 -12.5q-27 0 -48 15t-27 58l-13 89q-3 19 -5 36t-6.5 29t-12.5 19t-21 7
q-27 0 -54 -37q-11 -16 -18 -33.5t-20 -53.5l-42 -121h-35l242 702l-96 -5l11 28l130 6l-170 -480q29 38 61 75t59 62q43 40 73.5 56t59.5 16q32 0 45.5 -15t13.5 -36q0 -14 -5.5 -24t-11.5 -17q-8 -8 -17 -13l-19 19q5 4 9 8t7 10t3 14q0 10 -6.5 17t-23.5 7
q-23 0 -47.5 -14.5t-62.5 -49.5z" />
    <glyph glyph-name="l" unicode="l" horiz-adv-x="254" 
d="M244 712l-91 -5l11 28l124 6l-176 -527q-6 -18 -14.5 -41t-16 -45.5t-13 -43t-5.5 -34.5q0 -30 25 -30q17 0 33 16.5t29.5 40t24.5 48.5t19 43l27 -11q-14 -32 -28 -62t-30.5 -53t-35.5 -37.5t-44 -14.5t-40 14t-15 42q0 17 5.5 39.5t13.5 47t16.5 48.5t15.5 44z" />
    <glyph glyph-name="m" unicode="m" horiz-adv-x="739" 
d="M662 54q-21 -32 -41.5 -48t-44.5 -16q-23 0 -38 14.5t-15 46.5q0 17 4.5 39t10.5 46q14 49 28.5 94.5t25.5 87.5q5 22 8.5 41.5t3.5 33.5q0 15 -9 26t-32 11q-27 0 -52 -19q-22 -16 -41 -40.5t-33.5 -49t-24.5 -45.5t-13 -30l-84 -246h-36l95 273q15 45 19 71.5t4 48.5
q0 15 -9 26t-32 11q-17 0 -33 -7.5t-31 -20.5q-20 -17 -37 -40t-30.5 -46t-22 -42t-11.5 -28l-84 -246h-35l78 228q23 65 32.5 105t9.5 63q0 19 -6 26.5t-17 7.5t-21 -6.5t-20 -17.5q-20 -23 -38 -58t-31 -64l-28 12q20 45 38.5 77.5t37.5 52.5q31 34 68 34q48 0 48 -58
q0 -26 -11 -70q34 60 64 89q22 22 42.5 30.5t40.5 8.5q37 0 56 -19t19 -48q0 -20 -6 -45q33 55 66 83q35 29 72 29t56 -19t19 -48q0 -15 -3.5 -34t-9.5 -42q-11 -45 -27 -93.5t-29 -94.5q-6 -22 -10 -41t-4 -35q0 -33 22 -33q14 0 28 13t28 34q14 22 27 49t26 55l28 -12
q-15 -33 -28.5 -59t-26.5 -46z" />
    <glyph glyph-name="n" unicode="n" horiz-adv-x="547" 
d="M525 159q-14 -30 -26.5 -54t-24.5 -44q-22 -36 -43 -53.5t-47 -17.5q-23 0 -38 14.5t-15 46.5q0 17 4 37.5t10 43.5q14 51 30 99.5t27 91.5q11 42 11 68q0 17 -9.5 28t-32.5 11q-17 0 -33.5 -7t-32.5 -18q-23 -17 -42.5 -40.5t-34.5 -47t-24.5 -43t-12.5 -28.5l-84 -246
h-35l78 228q23 65 32.5 105t9.5 63q0 19 -6 26.5t-17 7.5q-17 0 -36 -19q-22 -22 -41 -58.5t-33 -68.5l-28 12q21 48 41 81.5t40 53.5q29 29 63 29q48 0 48 -57q0 -30 -12 -73q38 65 77 96q22 18 43.5 26t43.5 8q36 0 55 -19t19 -50q0 -14 -3.5 -32t-8.5 -40
q-12 -46 -28.5 -97.5t-30.5 -99.5q-5 -20 -8.5 -37.5t-3.5 -31.5q0 -33 22 -33q16 0 31 15.5t30 39.5q12 21 24 45.5t24 50.5z" />
    <glyph glyph-name="o" unicode="o" horiz-adv-x="410" 
d="M260 460q60 0 92.5 -38.5t32.5 -104.5q0 -51 -16 -108.5t-46 -106t-73.5 -80.5t-99.5 -32q-60 0 -92.5 38.5t-32.5 104.5q0 51 16 108.5t46 106t73.5 80.5t99.5 32zM150 18q33 0 60.5 15t50.5 40q21 24 37.5 54t28 62.5t17 65.5t5.5 62q0 48 -20 81.5t-69 33.5
q-29 0 -53.5 -11t-45.5 -31q-24 -23 -42.5 -54.5t-31.5 -66t-19.5 -70t-6.5 -66.5q0 -24 4.5 -45t15 -36.5t27.5 -24.5t42 -9z" />
    <glyph glyph-name="p" unicode="p" horiz-adv-x="486" 
d="M425 314q0 59 -22.5 87.5t-61.5 28.5q-29 0 -54.5 -14.5t-47.5 -39t-39 -56.5t-27 -66l-14 -45q-9 -27 -12 -55.5t0 -54.5q4 -34 26 -56.5t61 -22.5q44 0 79.5 29.5t60 73.5t38 95.5t13.5 95.5zM-108 -280l3 27h85l198 640q-17 -14 -35.5 -30.5t-36 -36t-31.5 -43
t-21 -52.5l-32 4q10 41 32 71t47.5 54t50.5 44.5t42 42.5l61 196h35l-81 -264q26 42 60 64.5t76 22.5q23 0 44 -7.5t37 -24.5t25.5 -45t9.5 -69q0 -51 -15 -108t-43.5 -105t-70 -79.5t-94.5 -31.5q-46 0 -75.5 25t-37.5 67q-1 3 -1.5 5.5t-0.5 5.5l-107 -346h91l-3 -27h-212
z" />
    <glyph glyph-name="q" unicode="q" horiz-adv-x="424" 
d="M58 -280l3 27h91l116 332q-24 -37 -58 -63t-81 -26q-21 0 -39.5 6t-33 20.5t-23 38.5t-8.5 59q0 42 11.5 83.5t31.5 79t47 69.5t59 57q33 26 70.5 41.5t75.5 15.5q28 0 44.5 -8.5t26.5 -18.5l6 17h35l-245 -703h86l-3 -27h-212zM132 20q30 0 57.5 16t51 42t41.5 58.5
t29 65.5l70 202q-8 10 -22.5 18t-37.5 8q-32 0 -65 -15.5t-62 -38.5q-28 -24 -52.5 -54t-42.5 -64.5t-28 -71t-10 -72.5q0 -48 18.5 -71t52.5 -23z" />
    <glyph glyph-name="r" unicode="r" horiz-adv-x="390" 
d="M72 0l83 242q37 107 37 154q0 19 -6 26.5t-17 7.5q-9 0 -17.5 -4.5t-16.5 -12.5q-11 -11 -21.5 -26.5t-20.5 -33t-18.5 -35.5t-15.5 -34l-28 12q43 100 84 138q29 26 60 26q49 0 49 -58q0 -26 -11 -68q15 29 31.5 53.5t39.5 44.5q20 17 35.5 22.5t31.5 5.5q26 0 41.5 -15
t17.5 -57l-33 -5q-1 22 -5.5 34.5t-22.5 12.5q-23 0 -47 -19q-38 -32 -67.5 -76t-46.5 -96l-81 -239h-35z" />
    <glyph glyph-name="s" unicode="s" horiz-adv-x="316" 
d="M289 370q-9 62 -60 62q-30 0 -46 -20.5t-16 -58.5q0 -23 8 -48t19 -61q7 -23 13 -40.5t10 -32.5t6 -29t2 -30q0 -33 -9.5 -56t-26 -38t-38 -21.5t-45.5 -6.5q-51 0 -83.5 27.5t-37.5 82.5l32 4q5 -39 28 -62.5t62 -23.5q34 0 59.5 22.5t25.5 72.5q0 27 -9 52.5t-22 66.5
q-12 38 -20.5 66t-8.5 55q0 29 8 49.5t21.5 33t31.5 18.5t37 6q37 0 61 -20.5t30 -64.5z" />
    <glyph glyph-name="t" unicode="t" horiz-adv-x="299" 
d="M262 156q-18 -45 -38 -79t-44 -56q-34 -31 -76 -31q-63 0 -63 66q0 15 3.5 32.5t10.5 38.5l101 294h-76l9 29h77q19 54 34 95t21 61l35 -4l-55 -152h100l-9 -29h-102l-100 -294q-14 -44 -14 -68q0 -39 33 -39q28 0 53 25q21 20 39 52t34 71z" />
    <glyph glyph-name="u" unicode="u" horiz-adv-x="532" 
d="M509 159q-17 -41 -33 -71t-33 -51q-37 -47 -79 -47q-49 0 -49 58q0 13 2.5 29t7.5 35q-31 -57 -72.5 -89.5t-86.5 -32.5q-14 0 -28 3.5t-25 12t-17.5 22.5t-6.5 35q0 17 4 38t12 45q7 27 17 55.5t20 55.5t19 51t15 41q4 12 7 26t3 27q0 12 -4.5 20t-15.5 8q-8 0 -17 -4.5
t-17 -12.5q-11 -11 -21.5 -26.5t-20.5 -33t-18.5 -35.5t-15.5 -34l-28 12q43 100 84 138q27 26 60 26q27 0 38.5 -15.5t11.5 -40.5q0 -14 -3.5 -31t-9.5 -35t-15 -42t-19 -50.5t-19.5 -54.5t-16.5 -53q-14 -44 -14 -72q0 -46 43 -46q28 0 54 17t49 43q29 32 48.5 67t27.5 57
l84 246h35l-79 -228q-22 -63 -31 -103t-9 -63q0 -20 6 -28t17 -8q13 0 26 10t25 27q17 23 33 54t28 60z" />
    <glyph glyph-name="v" unicode="v" horiz-adv-x="449" 
d="M424 350q0 -33 -5.5 -69t-16 -72.5t-26 -70.5t-36.5 -62q-29 -38 -66.5 -62t-85.5 -24q-32 0 -54.5 10.5t-37 28.5t-21.5 41t-7 48q0 35 11.5 70.5t29.5 70.5t40 68.5t43 63.5h-5q-11 0 -21 4t-18 10q-11 8 -18.5 14.5t-18.5 6.5q-25 0 -35.5 -30t-15.5 -78l-30 5
q8 75 29.5 104t51.5 29q16 0 27.5 -7.5t25.5 -18.5q7 -5 14 -10.5t17 -5.5q6 0 12 3t12 12l24 34l24 -16q-23 -35 -51.5 -75.5t-53.5 -83t-41.5 -86t-16.5 -83.5q0 -17 4 -34.5t14.5 -32t27 -23.5t42.5 -9q38 0 68.5 20t53.5 53q19 27 34 59.5t25 67.5t15 69.5t5 65.5
q0 26 -4 49.5t-12 43.5l30 13q9 -25 13 -53.5t4 -57.5z" />
    <glyph glyph-name="w" unicode="w" horiz-adv-x="688" 
d="M416 -10q-16 0 -31.5 4.5t-28.5 15t-23 29t-15 47.5q-34 -45 -67.5 -70.5t-81.5 -25.5q-50 0 -76.5 29t-26.5 83q0 40 13 78.5t33.5 75t44.5 70.5t46 64q-2 -1 -6 -1q-11 0 -21 5.5t-20 12.5q-9 7 -18.5 12.5t-20.5 5.5q-26 0 -38 -30t-17 -78l-32 5q4 39 12.5 64.5
t19.5 41t25 21.5t28 6q17 0 30 -7.5t25 -15.5q10 -8 19 -13.5t19 -5.5q11 0 17 8q8 11 15 19.5t15 22.5l25 -17q-24 -35 -55 -76t-58 -85.5t-46 -91t-19 -92.5q0 -15 2.5 -29.5t10 -26t21 -18.5t34.5 -7q42 0 75.5 27.5t64.5 70.5q-2 92 17 171q15 61 40.5 100.5t59.5 39.5
q14 0 25.5 -10.5t11.5 -37.5q0 -26 -9 -59t-26 -71q-15 -33 -36 -68t-47 -69q6 -94 72 -94q42 0 78 30t64 78q32 54 50 119.5t18 124.5q0 24 -3 41t-9 33l31 14q9 -20 12.5 -39.5t3.5 -44.5q0 -63 -18.5 -133t-53.5 -128q-32 -55 -76.5 -90t-98.5 -35zM433 374q0 21 -12 21
q-17 0 -32.5 -32t-28.5 -81q-8 -32 -13.5 -67.5t-7.5 -71.5q19 29 35 60.5t28 60.5q14 35 22.5 64t8.5 46z" />
    <glyph glyph-name="x" unicode="x" horiz-adv-x="501" 
d="M266 261q12 18 24 35q13 19 25.5 37.5t25 35.5t21.5 30q21 29 40.5 45t42.5 16q17 0 31.5 -10.5t14.5 -36.5t-14 -52t-34 -51l-22 18q17 23 27.5 43.5t10.5 37.5q0 21 -18 21q-14 0 -28.5 -15t-30.5 -38q-11 -15 -24.5 -34t-28 -39.5t-28.5 -41t-26 -38.5q5 -19 12 -43
l13 -47q6 -23 12 -43.5t10 -32.5q11 -35 35 -35q13 0 24 9.5t19 25.5t14.5 36.5t12.5 43.5l30 -4q-17 -69 -41 -106.5t-62 -37.5q-19 0 -35.5 12t-27.5 44q-7 21 -19 61.5t-23 81.5q-11 -16 -23.5 -34.5t-25 -37.5t-24.5 -36t-21 -30q-21 -29 -38.5 -45t-43.5 -16
q-20 0 -35 12.5t-15 44.5q0 19 5.5 36.5t13.5 32t17.5 26.5t17.5 20l23 -17q-14 -17 -29.5 -43t-15.5 -52q0 -30 23 -30q17 0 29 15t28 38q11 15 24 35l27 40q14 21 27.5 41.5t25.5 37.5l-37 138q-9 36 -17.5 50.5t-19.5 14.5q-10 0 -18.5 -10t-16 -27.5t-14 -41
t-12.5 -50.5l-30 5q17 78 37 116t58 38q24 0 39 -18.5t27 -66.5z" />
    <glyph glyph-name="y" unicode="y" horiz-adv-x="428" 
d="M-92 -266q66 27 137 86t136 142q11 53 16.5 119.5t5.5 131.5q0 54 -4 100.5t-14 75.5q-14 41 -40 41q-18 0 -31.5 -15.5t-23.5 -39.5t-16 -54t-9 -59l-30 5q4 39 12.5 74.5t22.5 61.5t33 41.5t45 15.5t42.5 -17t26.5 -46q11 -33 15.5 -77.5t4.5 -95.5t-4.5 -104
t-12.5 -103q32 49 59.5 98.5t47.5 96.5t31 91.5t11 85.5q0 16 -1.5 28.5t-3.5 20.5q-3 10 -5 16l34 9q3 -8 6 -19q2 -9 4 -22.5t2 -30.5q0 -48 -16 -101.5t-42.5 -109.5t-61.5 -113t-74 -112q-32 -45 -69 -84.5t-75 -71t-76 -55t-72 -37.5z" />
    <glyph glyph-name="z" unicode="z" horiz-adv-x="370" 
d="M335 453l25 -16l-270 -327h2q23 0 41 -13.5t37 -33.5q14 -15 28 -29t37 -14q20 0 34 11t23.5 28t16.5 37t13 37l30 -8q-8 -23 -18 -47t-24 -43.5t-32 -32t-42 -12.5q-28 0 -48.5 16t-40.5 38q-14 15 -27 27t-32 12q-20 0 -28 -9.5t-18 -23.5l-46 -57l-21 20l278 338h-4
q-21 0 -40 13.5t-37 30.5q-11 10 -20.5 17.5t-23.5 7.5q-22 0 -31.5 -20t-14.5 -52l-29 8q7 45 24 69.5t49 24.5q20 0 35 -9t29 -23q16 -14 31 -27t34 -13q17 0 26.5 9.5t19.5 22.5z" />
    <glyph glyph-name="quoteleft" unicode="&#x2018;" horiz-adv-x="204" 
d="M258 498q-16 -7 -39 -7q-13 0 -27 4t-25 13t-18 24t-7 37q0 57 39 98t99 67l15 -25q-54 -27 -85.5 -61t-31.5 -77q0 -28 13.5 -39t34.5 -11q14 0 24 5z" />
    <glyph glyph-name="quoteright" unicode="&#x2019;" horiz-adv-x="204" 
d="M175 714q16 7 39 7q13 0 27 -4t25 -13t18 -24t7 -37q0 -57 -39 -98t-99 -67l-15 25q54 27 85.5 61t31.5 77q0 28 -13.5 39t-34.5 11q-14 0 -24 -5z" />
    <glyph glyph-name="quotedblleft" unicode="&#x201c;" horiz-adv-x="374" 
d="M258 498q-16 -7 -39 -7q-13 0 -27 4t-25 13t-18 24t-7 37q0 57 39 98t99 67l15 -25q-54 -27 -85.5 -61t-31.5 -77q0 -28 13.5 -39t34.5 -11q14 0 24 5zM428 498q-16 -7 -39 -7q-13 0 -27 4t-25 13t-18 24t-7 37q0 57 39 98t99 67l15 -25q-54 -27 -85.5 -61t-31.5 -77
q0 -28 13.5 -39t34.5 -11q14 0 24 5z" />
    <glyph glyph-name="quotedblright" unicode="&#x201d;" horiz-adv-x="374" 
d="M351 714q16 7 39 7q13 0 27 -4t25 -13t18 -24t7 -37q0 -57 -39 -98t-99 -67l-15 25q54 27 85.5 61t31.5 77q0 28 -13.5 39t-34.5 11q-14 0 -24 -5zM181 714q16 7 39 7q13 0 27 -4t25 -13t18 -24t7 -37q0 -57 -39 -98t-99 -67l-15 25q54 27 85.5 61t31.5 77q0 28 -13.5 39
t-34.5 11q-14 0 -24 -5z" />
    </font>
</defs>
</svg>
